<svg xmlns="http://www.w3.org/2000/svg" aria-hidden="true" style="position:absolute;width:0;height:0;overflow:hidden">
  <defs>
    <symbol id="icon-ReduxToolKit" viewBox="0 0 32 32">
      <path fill="#fff" d="M20.992 20.928c.928-.096 1.632-.896 1.6-1.856s-.832-1.728-1.792-1.728h-.064a1.79 1.79 0 0 0-1.728 1.856c.032.48.224.896.512 1.184-1.088 2.144-2.752 3.712-5.248 5.024-1.696.896-3.456 1.216-5.216.992-1.44-.192-2.56-.832-3.264-1.888-1.024-1.568-1.12-3.264-.256-4.96.608-1.216 1.568-2.112 2.176-2.56-.128-.416-.32-1.12-.416-1.632-4.64 3.36-4.16 7.904-2.752 10.048C5.6 27.008 7.744 28 10.112 28c.64 0 1.28-.064 1.92-.224 4.096-.8 7.2-3.232 8.96-6.848z" style="fill:var(--color1, #fff)"/>
      <path fill="#fff" d="M26.624 16.96c-2.432-2.848-6.016-4.416-10.112-4.416H16a1.758 1.758 0 0 0-1.568-.96h-.064a1.79 1.79 0 0 0-1.728 1.856c.032.96.832 1.728 1.792 1.728h.064a1.803 1.803 0 0 0 1.568-1.088h.576c2.432 0 4.736.704 6.816 2.08 1.6 1.056 2.752 2.432 3.392 4.096.544 1.344.512 2.656-.064 3.776-.896 1.696-2.4 2.624-4.384 2.624-1.28 0-2.496-.384-3.136-.672-.352.32-.992.832-1.44 1.152 1.376.64 2.784.992 4.128.992 3.072 0 5.344-1.696 6.208-3.392.928-1.856.864-5.056-1.536-7.776z" style="fill:var(--color1, #fff)"/>
      <path fill="#fff" d="M10.368 21.472c.032.96.832 1.728 1.792 1.728h.064a1.79 1.79 0 0 0 1.728-1.856 1.797 1.797 0 0 0-1.792-1.728h-.064c-.064 0-.16 0-.224.032-1.312-2.176-1.856-4.544-1.664-7.104.128-1.92.768-3.584 1.888-4.96.928-1.184 2.72-1.76 3.936-1.792 3.392-.064 4.832 4.16 4.928 5.856.416.096 1.12.32 1.6.48-.384-5.184-3.584-7.872-6.656-7.872-2.88 0-5.536 2.08-6.592 5.152-1.472 4.096-.512 8.032 1.28 11.136-.16.224-.256.576-.224.928z" style="fill:var(--color1, #fff)"/>
    </symbol>
    <symbol id="icon-Mongoose" viewBox="0 0 55 32">
      <path fill="#800" d="m23.134 21.829-2.049-3.181v5.696h3.977l.137-.14v-5.555z" style="fill:var(--color2, #800)"/>
      <path fill="#800" d="M42.181 9.266c-.777.058-1.556.118-2.335.123a6.89 6.89 0 0 1-1.437-.158c-.594-.124-1.094-.418-1.387-.993-.044-.085-.19-.134-.299-.167-.383-.114-.77-.213-1.157-.356.135-.01.269-.03.404-.028.33.003.663-.012.988.031.593.08 1.182.195 1.772.298.336.058.675.111 1.008.183.633.136 1.264.283 1.895.428.417.096.833.195 1.249.296zm.152 4.214c-.969.299-1.949.567-2.902.911-.597.215-1.157.534-1.725.825-.495.254-.669.687-.609 1.224.039.345.087.69.117 1.04a3.807 3.807 0 0 1-.551-1.219 6.392 6.392 0 0 1-.063-.274c-.075-.359.124-.582.384-.776a5.824 5.824 0 0 1 1.654-.875 35.472 35.472 0 0 1 2.253-.691c.535-.138 1.092-.191 1.639-.283.101-.017.2-.045.3-.067l.01.041c-.169.047-.34.091-.508.143zM28.665 9.645l-.048.046a4.224 4.224 0 0 0-1.415-.686l-.043.042 1.347 1.578-.885-.29-.037.044c.348.574.802 1.072 1.234 1.647a12.875 12.875 0 0 1-2.034-1.422c-.85-.727-1.591-1.547-2.147-2.523-.229-.402-.431-.819-.474-1.289a1.008 1.008 0 0 1 .023-.319c.04-.167.198-.243.36-.193.891.277 1.768.591 2.588 1.047a8.276 8.276 0 0 1 2.083 1.609c.024.026.043.059.076.106l-1.371-.625-.046.056.788 1.173zM1.633 14.386c-.011.03.024.06.036.09.185-.039.368-.09.555-.115l.146-.019a10.885 10.885 0 0 1 2.122-.541c1.03-.145 2.097-.337 3.148-.332.998.005 2.008.158 2.985.326.274.047.543.11.808.185.714.16 1.384.446 1.987.832l.129.065a6.38 6.38 0 0 1 2.208 1.725c.109.121.299.247.397.379.205.242.303.5.646.771v-3.697h4.275l1.999 3.689 2.005-3.689h4.406v7.144l.729-.481s.8-2.126 4.505-2.425l4.247-.137c-.655-1.356-.653-1.356-.337-1.765.313-.405 2.725-.67 3.149-.923l6.197-1.25c.015-.048.031.026.063.015.154-.049.314-.079.534-.131l1.401-.341c.091-.051.2-.072.3-.106.655-.227 1.227-.52 1.544-1.218.309-.68.722-1.311.872-2.059.047-.236.007-.442-.164-.612-.206-.206-.473-.294-.747-.365-.895-.367-1.787-.744-2.69-1.093-.555-.215-1.124-.393-1.691-.575a65.85 65.85 0 0 0-1.69-.516c-.521-.152-1.044-.294-1.568-.437-.51-.139-1.02-.282-1.534-.409-.598-.147-1.201-.278-1.802-.415-.456-.104-.911-.216-1.369-.309-.499-.102-1.002-.189-1.504-.277-.641-.113-1.281-.238-1.926-.325-.779-.106-1.562-.175-2.343-.266a20.316 20.316 0 0 0-3.929-.095c-.465.035-.923.153-1.384.233.489.251.972.454 1.449.671.48.219.927.493 1.337.823-.537-.206-1.06-.443-1.599-.635-1.125-.402-2.269-.735-3.457-.896-.581-.079-1.161-.154-1.742.01-.589.166-.755.385-.808.975-.088.979.206 1.887.598 2.763a9.43 9.43 0 0 0 2.521 3.348 9.69 9.69 0 0 0 2.777 1.674c.291.114.584.221.876.331l-.02.068c-.56-.153-1.133-.268-1.675-.469-.959-.354-1.816-.895-2.6-1.553-.875-.734-1.603-1.591-2.143-2.596-.574-1.066-.902-2.205-.914-3.425z" style="fill:var(--color2, #800)"/>
      <path fill="#800" d="M1.631 14.429s9.94-9.6 21.3-8.409z" style="fill:var(--color2, #800)"/>
    </symbol>
    <symbol id="icon-NextJs" viewBox="0 0 32 32">
      <path d="M12.649 21a1 1 0 1 1-2 0v-9.333a1 1 0 0 1 1.816-.578L23.65 26.892c3.428-2.419 5.683-6.401 5.683-10.891 0-7.333-6-13.333-13.333-13.333s-13.333 6-13.333 13.333 6 13.333 13.333 13.333a13.19 13.19 0 0 0 5.927-1.415L12.65 14.811V21zm6.667-10a1 1 0 1 1 2 0v9.227l-2-2.818V11z"/>
    </symbol>
    <symbol id="icon-HTML5" viewBox="0 0 32 32">
      <path fill="#e65100" d="M27.333 3.333H4.666l2 22.667 9.333 2.667L25.332 26l2-22.667z" style="fill:var(--color3, #e65100)"/>
      <path fill="#ff6d00" d="M16 5.333V26.6l7.467-2.133 1.667-19.133z" style="fill:var(--color4, #ff6d00)"/>
      <path fill="#fff" d="M16 16.667V14h5.733l-.467 7.667-5.267 1.733v-2.8l2.733-.933.2-3h-2.933zm5.933-5.334.2-2.667H16v2.667h5.933z" style="fill:var(--color1, #fff)"/>
      <path fill="#eee" d="M16 20.6v2.8l-5.267-1.733L10.466 18h2.667l.133 1.667 2.733.933zm-3.267-9.267H16V8.666H9.933l.467 8H16v-2.667h-3.067l-.2-2.667z" style="fill:var(--color5, #eee)"/>
    </symbol>
    <symbol id="icon-CSS3" viewBox="0 0 32 32">
      <path fill="#0277bd" d="M27.333 3.333H4.666l2 22.667 9.333 2.667L25.332 26l2-22.667z" style="fill:var(--color6, #0277bd)"/>
      <path fill="#039be5" d="M16 5.333V26.6l7.467-2.133 1.667-19.133z" style="fill:var(--color7, #039be5)"/>
      <path fill="#fff" d="M22.067 8.667H16v2.667h3.267l-.2 2.667H16v2.667h2.933l-.2 3-2.733.933v2.8l5.267-1.733.467-7.667z" style="fill:var(--color1, #fff)"/>
      <path fill="#eee" d="M16 8.667v2.667h-5.933l-.2-2.667H16zM12.933 14l.133 2.667h2.933V14h-3.067zm.267 4h-2.667l.2 3.667L16 23.4v-2.8l-2.733-.933L13.2 18z" style="fill:var(--color5, #eee)"/>
    </symbol>
    <symbol id="icon-discord" viewBox="0 0 32 32">
      <path d="M26.64 6.893c-2.547-2.05-6.578-2.397-6.75-2.41a.638.638 0 0 0-.633.375c-.01.015-.098.218-.195.532 1.685.285 3.755.857 5.628 2.02a.64.64 0 1 1-.675 1.087c-3.22-1.998-7.24-2.098-8.015-2.098s-4.797.1-8.015 2.098a.64.64 0 0 1-.675-1.088c1.872-1.16 3.942-1.735 5.628-2.018a5.225 5.225 0 0 0-.193-.535.633.633 0 0 0-.635-.375c-.172.013-4.202.36-6.785 2.438-1.348 1.248-4.045 8.537-4.045 14.84 0 .113.03.22.085.317 1.86 3.27 6.937 4.125 8.095 4.162h.02a.643.643 0 0 0 .518-.262l1.17-1.61c-3.158-.815-4.77-2.2-4.862-2.282a.64.64 0 0 1 .847-.96c.037.035 3.007 2.555 8.848 2.555 5.85 0 8.82-2.53 8.85-2.555a.64.64 0 0 1 .902.06.637.637 0 0 1-.058.9c-.093.082-1.705 1.468-4.863 2.282l1.17 1.61a.64.64 0 0 0 .517.262h.02c1.157-.038 6.235-.892 8.095-4.162a.643.643 0 0 0 .085-.317c0-6.303-2.697-13.592-4.08-14.867zM11.84 19.2c-1.238 0-2.24-1.145-2.24-2.56s1.002-2.56 2.24-2.56c1.238 0 2.24 1.145 2.24 2.56s-1.002 2.56-2.24 2.56zm8.32 0c-1.238 0-2.24-1.145-2.24-2.56s1.003-2.56 2.24-2.56c1.238 0 2.24 1.145 2.24 2.56s-1.003 2.56-2.24 2.56z"/>
    </symbol>
    <symbol id="icon-Github" viewBox="0 0 32 32">
      <path d="M11.386 29.975a1.28 1.28 0 0 0 .774-1.175v-3.456c0-.126.01-.257.026-.39l-.026.006H9.856c-.96 0-1.792-.384-2.176-1.152-.448-.832-.64-2.24-1.792-3.008-.192-.128-.064-.32.32-.32.384.064 1.216.576 1.728 1.28.576.704 1.152 1.28 2.176 1.28 1.592 0 2.445-.08 2.958-.355.598-.889 1.425-1.565 2.29-1.565v-.016c-3.628-.116-5.945-1.322-7.024-3.184-2.346.027-4.388.259-5.553.452-.037-.209-.069-.42-.097-.632 1.15-.189 3.1-.414 5.341-.457a5.109 5.109 0 0 1-.186-.543 41.363 41.363 0 0 0-5.24.062c-.013-.212-.03-.424-.033-.639a41.97 41.97 0 0 1 5.132-.071 6.241 6.241 0 0 1-.083-.988c0-1.088.384-2.24 1.088-3.2-.32-1.088-.768-3.392.128-4.224 1.728 0 2.944.832 3.52 1.344 1.087-.449 2.303-.705 3.647-.705s2.56.256 3.584.704c.576-.512 1.792-1.344 3.52-1.344.96.896.448 3.2.128 4.224.704.96 1.088 2.048 1.024 3.2 0 .31-.029.609-.07.902a42.326 42.326 0 0 1 5.251.065c-.001.216-.021.426-.033.639a41.569 41.569 0 0 0-5.35-.057 5.293 5.293 0 0 1-.208.627c2.269.029 4.266.249 5.471.441-.028.212-.06.423-.097.632-1.224-.196-3.309-.425-5.683-.436-1.066 1.842-3.341 3.043-6.897 3.183v.02c1.664 0 3.2 2.496 3.2 4.224v3.456c0 .527.319.979.774 1.175 5.863-1.94 10.106-7.47 10.106-13.975 0-8.116-6.603-14.72-14.72-14.72S1.28 7.883 1.28 15.999c0 6.505 4.243 12.035 10.106 13.975z"/>
    </symbol>
    <symbol id="icon-gmail" viewBox="0 0 32 32">
      <path d="M7.68 14.978V6.649l-.077-.057h-.006L5.85 5.299c-1.069-.794-2.592-.755-3.539.179a3.455 3.455 0 0 0-1.03 2.464v2.305l6.4 4.73zm16.64-.008v.008l6.4-4.73V7.943c0-.954-.384-1.824-1.011-2.451a2.67 2.67 0 0 0-3.471-.258L24.321 6.65v8.321zm-15.36.946 6.66 4.923a.64.64 0 0 0 .761 0l6.659-4.923V7.595L16 12.8 8.96 7.595v8.321zm15.36.653v9.671c0 .353.287.64.64.64h4.16a1.6 1.6 0 0 0 1.6-1.6V11.838l-6.4 4.731zm-16.64 0-6.4-4.731V25.28a1.6 1.6 0 0 0 1.6 1.6h4.16a.64.64 0 0 0 .64-.64v-9.671z"/>
    </symbol>
    <symbol id="icon-JavaScript" viewBox="0 0 32 32">
      <path fill="#ffd600" d="M4 28V4h24v24H4z" style="fill:var(--color8, #ffd600)"/>
      <path fill="#000001" d="M19.692 21.965c.461.749.963 1.467 2.025 1.467.892 0 1.36-.443 1.36-1.057 0-.734-.484-.995-1.465-1.422l-.538-.229c-1.553-.659-2.585-1.484-2.585-3.227 0-1.607 1.23-2.829 3.152-2.829 1.369 0 2.352.474 3.061 1.715l-1.676 1.071c-.369-.659-.767-.918-1.385-.918-.631 0-1.03.398-1.03.918 0 .643.4.903 1.323 1.301l.538.229c1.83.779 2.862 1.575 2.862 3.365 0 1.928-1.523 2.985-3.567 2.985-1.999 0-3.135-1.003-3.767-2.245l1.692-1.123zm-7.724.054c.337.604.85 1.069 1.587 1.069.705 0 1.111-.279 1.111-1.362v-7.059h2.222v7.401c0 2.245-1.302 3.266-3.203 3.266-1.718 0-2.958-1.164-3.463-2.245l1.746-1.069z" style="fill:var(--color9, #000001)"/>
    </symbol>
    <symbol id="icon-linkedin" viewBox="0 0 32 32">
      <path d="M26.24 2.56H5.76a3.202 3.202 0 0 0-3.2 3.2v20.48c0 1.766 1.434 3.2 3.2 3.2h20.48c1.766 0 3.2-1.434 3.2-3.2V5.76c0-1.766-1.434-3.2-3.2-3.2zM10.88 12.8v12.16H7.04V12.8h3.84zM7.04 9.261c0-.896.768-1.581 1.92-1.581s1.875.685 1.92 1.581c0 .896-.717 1.619-1.92 1.619-1.152 0-1.92-.723-1.92-1.619zM24.96 24.96h-3.84v-6.4c0-1.28-.64-2.56-2.24-2.586h-.051c-1.549 0-2.189 1.318-2.189 2.586v6.4H12.8V12.8h3.84v1.638s1.235-1.638 3.718-1.638c2.541 0 4.602 1.747 4.602 5.286v6.874z"/>
    </symbol>
    <symbol id="icon-NodeJS" viewBox="0 0 32 32">
      <path fill="#21a366" d="M16.005 30.279c-.383 0-.762-.1-1.097-.293l-3.493-2.069c-.522-.292-.267-.395-.095-.455.696-.243.837-.299 1.579-.721.078-.045.18-.029.26.019l2.684 1.593a.35.35 0 0 0 .324 0l10.465-6.041a.33.33 0 0 0 .16-.283V9.954a.335.335 0 0 0-.162-.288L16.17 3.63a.325.325 0 0 0-.322 0L5.389 9.665a.333.333 0 0 0-.166.285v12.076c0 .115.063.225.163.28l2.866 1.655c1.556.778 2.507-.139 2.507-1.061V10.982c0-.17.133-.301.304-.301h1.325a.3.3 0 0 1 .301.301v11.924c0 2.075-1.131 3.267-3.099 3.267-.605 0-1.082 0-2.413-.655l-2.745-1.582a2.213 2.213 0 0 1-1.098-1.91V9.95a2.2 2.2 0 0 1 1.097-1.907L14.907 2a2.294 2.294 0 0 1 2.201 0l10.463 6.046a2.208 2.208 0 0 1 1.097 1.907v12.076c0 .783-.422 1.514-1.097 1.907l-10.463 6.043a2.197 2.197 0 0 1-1.103.293z" style="fill:var(--color10, #21a366)"/>
      <path fill="#21a366" d="M19.237 21.958c-4.579 0-5.539-2.102-5.539-3.865 0-.167.135-.301.303-.301h1.352c.149 0 .275.109.299.256.204 1.377.812 2.072 3.581 2.072 2.205 0 3.143-.498 3.143-1.668 0-.673-.267-1.173-3.693-1.509-2.866-.283-4.637-.914-4.637-3.206 0-2.111 1.781-3.369 4.765-3.369 3.351 0 5.011 1.163 5.221 3.662a.302.302 0 0 1-.081.233.312.312 0 0 1-.223.097h-1.359a.299.299 0 0 1-.293-.236c-.327-1.449-1.119-1.912-3.269-1.912-2.407 0-2.687.838-2.687 1.467 0 .762.33.985 3.578 1.415 3.217.427 4.744 1.029 4.744 3.29 0 2.279-1.902 3.586-5.218 3.586z" style="fill:var(--color10, #21a366)"/>
    </symbol>
    <symbol id="icon-phone" viewBox="0 0 32 32">
      <path d="M8.96 2.554a6.41 6.41 0 0 0-6.4 6.4v14.08a6.41 6.41 0 0 0 6.4 6.4h14.08a6.41 6.41 0 0 0 6.4-6.4V8.954a6.41 6.41 0 0 0-6.4-6.4H8.96zm2.564 5.147c.402.017.771.244.994.591l1.159 1.81a2.4 2.4 0 0 1 .082 2.435l-.938 1.334a1.28 1.28 0 0 0-.134 1.23c.265.634.779 1.607 1.691 2.52s1.886 1.426 2.52 1.691c.407.17.869.12 1.23-.134l1.334-.938a2.405 2.405 0 0 1 2.435.082l1.81 1.159c.348.223.574.592.591.994.099 2.281-1.669 3.205-2.183 3.205-.356 0-4.634.486-9.459-4.339s-4.339-9.103-4.339-9.459c0-.514.924-2.281 3.205-2.183z"/>
    </symbol>
    <symbol id="icon-React" viewBox="0 0 32 32">
      <path fill="#80deea" d="M16 22.667C7.4 22.667.667 19.734.667 16S7.4 9.333 16 9.333c8.6 0 15.333 2.933 15.333 6.667S24.6 22.667 16 22.667zm0-12C7.6 10.667 2 13.4 2 16s5.6 5.333 14 5.333S30 18.6 30 16s-5.6-5.333-14-5.333z" style="fill:var(--color11, #80deea)"/>
      <path fill="#80deea" d="M10.067 29.733c-.667 0-1.2-.133-1.733-.467-3.267-1.867-2.4-9.133 1.867-16.6 2-3.467 4.467-6.4 6.867-8.267 2.6-2 4.933-2.6 6.533-1.667 1.667.933 2.267 3.267 1.867 6.533-.4 3.067-1.733 6.667-3.733 10.133s-4.467 6.4-6.867 8.267c-1.733 1.333-3.4 2.067-4.8 2.067zM21.933 3.6c-1.067 0-2.467.6-4 1.8-2.267 1.8-4.6 4.6-6.533 7.933C7.2 20.6 6.8 26.866 9 28.133c1.133.667 3 .067 5.067-1.533 2.267-1.8 4.6-4.6 6.533-7.933s3.2-6.733 3.6-9.6c.333-2.667-.067-4.533-1.2-5.2-.333-.133-.667-.267-1.067-.267z" style="fill:var(--color11, #80deea)"/>
      <path fill="#80deea" d="M22 29.733c-3.333 0-8.133-4.067-11.733-10.4-4.333-7.467-5.2-14.733-1.933-16.6C11.601.866 17.467 5.2 21.801 12.666c2 3.467 3.333 7.067 3.733 10.133.467 3.267-.2 5.533-1.867 6.533a3.61 3.61 0 0 1-1.667.4zM9 3.867c-2.2 1.267-1.8 7.533 2.4 14.8S20.8 29.4 23 28.134c1.133-.667 1.533-2.533 1.2-5.2-.4-2.867-1.667-6.267-3.6-9.6C16.4 6.067 11.2 2.601 9 3.867z" style="fill:var(--color11, #80deea)"/>
      <path fill="#80deea" d="M18.667 16a2.667 2.667 0 1 1-5.334 0 2.667 2.667 0 0 1 5.334 0z" style="fill:var(--color11, #80deea)"/>
    </symbol>
    <symbol id="icon-Tailwind" viewBox="0 0 32 32">
      <path fill="#00acc1" d="M16 6.403c-4.267 0-6.933 2.133-8 6.398 1.6-2.133 3.467-2.932 5.6-2.399 1.217.304 2.087 1.187 3.051 2.165 1.568 1.591 3.383 3.434 7.349 3.434 4.267 0 6.933-2.133 8-6.399-1.6 2.133-3.467 2.933-5.6 2.4-1.217-.304-2.087-1.187-3.05-2.165-1.569-1.592-3.385-3.434-7.35-3.434zM8 16c-4.267 0-6.933 2.133-8 6.399C1.6 20.266 3.467 19.466 5.6 20c1.217.305 2.087 1.187 3.05 2.164 1.569 1.592 3.385 3.435 7.35 3.435 4.267 0 6.933-2.133 8-6.399-1.6 2.133-3.467 2.933-5.6 2.399-1.217-.304-2.087-1.187-3.051-2.164C13.781 17.843 11.966 16 8 16z" style="fill:var(--color12, #00acc1)"/>
    </symbol>
    <symbol id="icon-telegram" viewBox="0 0 32 32">
      <path d="M16 1.28c8.13 0 14.72 6.59 14.72 14.72S24.13 30.72 16 30.72 1.28 24.13 1.28 16 7.87 1.28 16 1.28zM21.078 22c.271-.831 1.539-9.11 1.696-10.741.047-.494-.109-.822-.415-.969-.37-.178-.918-.089-1.553.14-.872.314-12.015 5.046-12.659 5.32-.611.259-1.188.542-1.188.952 0 .288.171.45.642.618.49.175 1.725.549 2.454.75.702.194 1.501.026 1.949-.253.475-.295 5.955-3.962 6.349-4.284s.707.09.385.412c-.321.321-4.083 3.972-4.579 4.478-.602.614-.175 1.25.229 1.505.461.291 3.78 2.516 4.28 2.874s1.007.519 1.471.519c.464 0 .708-.611.94-1.321z"/>
    </symbol>
    <symbol id="icon-TypeScript" viewBox="0 0 32 32">
      <path fill="#1976d2" d="M4 4h24v24H4V4z" style="fill:var(--color13, #1976d2)"/>
      <path fill="#fff" d="M18.327 14.667H9.485v2.176h3.171v9.824h2.513v-9.824h3.158zM26.129 17.389s-1.191-.795-2.538-.795-1.831.64-1.831 1.324c0 1.765 4.921 1.589 4.921 5.141 0 5.473-7.503 3.045-7.503 3.045v-2.625s1.435 1.081 3.155 1.081 1.655-1.125 1.655-1.28c0-1.633-4.877-1.633-4.877-5.252 0-4.921 7.105-2.979 7.105-2.979l-.088 2.339z" style="fill:var(--color1, #fff)"/>
    </symbol>
    <symbol id="icon-whatsapp" viewBox="0 0 32 32">
      <path d="M16 1.28C7.884 1.28 1.28 7.884 1.28 16c0 2.534.655 5.027 1.896 7.226l-1.873 6.682a.639.639 0 0 0 .771.794l6.973-1.727A14.728 14.728 0 0 0 16 30.721c8.116 0 14.72-6.604 14.72-14.72S24.116 1.281 16 1.281zm7.405 19.914c-.315.872-1.825 1.667-2.551 1.774-.652.095-1.476.136-2.381-.148a22.197 22.197 0 0 1-2.154-.787c-3.791-1.617-6.266-5.386-6.456-5.635S8.32 14.375 8.32 12.539 9.296 9.8 9.643 9.426c.347-.374.756-.467 1.008-.467s.504.003.724.013c.232.012.544-.088.851.641.315.748 1.071 2.584 1.164 2.771.095.187.157.405.032.654s-.188.404-.378.623-.397.486-.567.654c-.189.186-.386.388-.166.762s.979 1.596 2.102 2.585c1.443 1.271 2.661 1.665 3.039 1.852s.598.156.819-.093c.22-.25.945-1.09 1.196-1.463s.504-.312.851-.187c.347.124 2.205 1.027 2.582 1.213s.63.28.724.436c.095.155.095.902-.22 1.773z"/>
    </symbol>
<symbol id="icon-menu" viewBox="0 0 32 32">
<path stroke-linejoin="round" stroke-linecap="round" stroke-miterlimit="4" stroke-width="1.92" d="M24.96 4.25h-3.84c-1.414 0-2.56 1.146-2.56 2.56v0 3.84c0 1.408 1.152 2.56 2.56 2.56h3.84c1.414 0 2.56-1.146 2.56-2.56v0-3.84c0-1.414-1.146-2.56-2.56-2.56v0zM10.88 4.25h-3.84c-1.414 0-2.56 1.146-2.56 2.56v0 3.84c0 1.408 1.152 2.56 2.56 2.56h3.84c1.414 0 2.56-1.146 2.56-2.56v0-3.84c0-1.414-1.146-2.56-2.56-2.56v0zM24.96 18.33h-3.84c-1.414 0-2.56 1.146-2.56 2.56v0 3.84c0 1.408 1.152 2.56 2.56 2.56h3.84c1.414 0 2.56-1.146 2.56-2.56v0-3.84c0-1.414-1.146-2.56-2.56-2.56v0zM10.88 18.33h-3.84c-1.414 0-2.56 1.146-2.56 2.56v0 3.84c0 1.408 1.152 2.56 2.56 2.56h3.84c1.414 0 2.56-1.146 2.56-2.56v0-3.84c0-1.414-1.146-2.56-2.56-2.56v0z"></path>
</symbol>
    <symbol id="icon-ReactRouter" viewBox="0 0 32 32">
      <path fill="#f44250" d="M24.76 12.744c-.911-.287-1.382-.19-2.338-.294-1.478-.161-2.066-.739-2.316-2.225-.14-.83.025-2.044-.331-2.796-.682-1.434-2.279-2.077-3.883-1.71-1.354.31-2.481 1.664-2.543 3.053-.071 1.586.832 2.94 2.384 3.407.737.222 1.521.334 2.291.391 1.412.103 1.521.888 1.903 1.534.241.407.474.809.474 2.023s-.235 1.616-.474 2.023c-.382.645-.853 1.067-2.265 1.171-.77.057-1.555.169-2.291.391-1.552.469-2.456 1.82-2.384 3.407.062 1.389 1.189 2.743 2.543 3.053 1.604.369 3.2-.276 3.883-1.71.358-.752.554-1.604.694-2.434.251-1.486.84-2.064 2.316-2.225.956-.104 1.945 0 2.841-.509.946-.692 1.792-1.729 1.792-3.168s-.911-2.947-2.295-3.382z" style="fill:var(--color14, #f44250)"/>
      <path fill="#fff" d="M9.6 19.497c-1.863 0-3.382-1.522-3.382-3.388s1.519-3.388 3.382-3.388a3.391 3.391 0 0 1 3.382 3.388A3.394 3.394 0 0 1 9.6 19.497zM3.37 26.383c-1.86-.005-3.374-1.533-3.37-3.4a3.39 3.39 0 0 1 3.394-3.376 3.391 3.391 0 0 1 3.37 3.4 3.393 3.393 0 0 1-3.394 3.376zM28.498 26.383a3.393 3.393 0 0 1-3.407-3.363c-.01-1.869 1.498-3.403 3.356-3.413a3.393 3.393 0 0 1 3.407 3.363c.01 1.867-1.498 3.403-3.356 3.413z" style="fill:var(--color1, #fff)"/>
    </symbol>
    <symbol id="icon-Redux" viewBox="0 0 32 32">
      <path fill="#764abc" d="M20.992 20.928c.928-.096 1.632-.896 1.6-1.856s-.832-1.728-1.792-1.728h-.064a1.79 1.79 0 0 0-1.728 1.856c.032.48.224.896.512 1.184-1.088 2.144-2.752 3.712-5.248 5.024-1.696.896-3.456 1.216-5.216.992-1.44-.192-2.56-.832-3.264-1.888-1.024-1.568-1.12-3.264-.256-4.96.608-1.216 1.568-2.112 2.176-2.56-.128-.416-.32-1.12-.416-1.632-4.64 3.36-4.16 7.904-2.752 10.048C5.6 27.008 7.744 28 10.112 28c.64 0 1.28-.064 1.92-.224 4.096-.8 7.2-3.232 8.96-6.848z" style="fill:var(--color15, #764abc)"/>
      <path fill="#764abc" d="M26.624 16.96c-2.432-2.848-6.016-4.416-10.112-4.416H16a1.758 1.758 0 0 0-1.568-.96h-.064a1.79 1.79 0 0 0-1.728 1.856c.032.96.832 1.728 1.792 1.728h.064a1.803 1.803 0 0 0 1.568-1.088h.576c2.432 0 4.736.704 6.816 2.08 1.6 1.056 2.752 2.432 3.392 4.096.544 1.344.512 2.656-.064 3.776-.896 1.696-2.4 2.624-4.384 2.624-1.28 0-2.496-.384-3.136-.672-.352.32-.992.832-1.44 1.152 1.376.64 2.784.992 4.128.992 3.072 0 5.344-1.696 6.208-3.392.928-1.856.864-5.056-1.536-7.776z" style="fill:var(--color15, #764abc)"/>
      <path fill="#764abc" d="M10.368 21.472c.032.96.832 1.728 1.792 1.728h.064a1.79 1.79 0 0 0 1.728-1.856 1.797 1.797 0 0 0-1.792-1.728h-.064c-.064 0-.16 0-.224.032-1.312-2.176-1.856-4.544-1.664-7.104.128-1.92.768-3.584 1.888-4.96.928-1.184 2.72-1.76 3.936-1.792 3.392-.064 4.832 4.16 4.928 5.856.416.096 1.12.32 1.6.48-.384-5.184-3.584-7.872-6.656-7.872-2.88 0-5.536 2.08-6.592 5.152-1.472 4.096-.512 8.032 1.28 11.136-.16.224-.256.576-.224.928z" style="fill:var(--color15, #764abc)"/>
    </symbol>
    <symbol id="icon-close" viewBox="0 0 32 32">
<path d="M6.1 6.1c0.362-0.362 0.862-0.586 1.414-0.586s1.052 0.224 1.414 0.586l7.072 7.072 7.072-7.072c0.359-0.347 0.849-0.561 1.389-0.561 1.105 0 2 0.895 2 2 0 0.54-0.214 1.030-0.562 1.39l0.001-0.001-7.072 7.072 7.072 7.072c0.347 0.359 0.561 0.849 0.561 1.389 0 1.105-0.895 2-2 2-0.54 0-1.030-0.214-1.39-0.562l0.001 0.001-7.072-7.072-7.072 7.072c-0.359 0.347-0.849 0.561-1.389 0.561-1.105 0-2-0.895-2-2 0-0.54 0.214-1.030 0.562-1.39l-0.001 0.001 7.072-7.072-7.072-7.072c-0.362-0.362-0.586-0.862-0.586-1.414s0.224-1.052 0.586-1.414v0z"></path>
</symbol>
    <symbol id="icon-Express" viewBox="0 0 32 32">
      <path d="M31.827 7.04h-.544c-.673 0-1.306.314-1.715.847L24 15.168l-5.568-7.281a2.157 2.157 0 0 0-1.714-.847h-.544l7.021 9.181-7.172 9.379h.544c.673 0 1.306-.314 1.715-.847L24 17.275l5.718 7.478a2.158 2.158 0 0 0 1.715.847h.544l-7.172-9.379 7.021-9.181zM13.625 21.915c-1.635 2.484-4.852 3.757-7.929 2.634-2.707-.988-4.416-3.678-4.416-6.559v-.71H16v-2.646c0-4.163-3.084-7.808-7.229-8.198C4.015 5.989 0 9.734 0 14.4v3.567c0 3.437 2.058 6.633 5.292 7.797 4.226 1.521 8.671-.749 10.173-4.644h-.408a1.72 1.72 0 0 0-1.432.795zM1.28 14.4c0-3.706 3.014-6.72 6.72-6.72s6.72 3.014 6.72 6.72V16H1.28v-1.6z"/>
    </symbol>
    <symbol id="icon-i18next" viewBox="0 0 32 32">
      <path fill="#009688" d="M19.915 3.316v6.022l6.768 17.382s2.066 4.245-3.843 5.28H9.359s-5.508-.575-4.187-4.936l7.112-17.726V3.315z" style="fill:var(--color16, #009688)"/>
      <path fill="#004d40" d="M20.058 2.616H11.94c-.658 0-1.192-.585-1.192-1.308S11.283 0 11.94 0h8.118c.661 0 1.194.585 1.194 1.308s-.534 1.308-1.194 1.308z" style="fill:var(--color17, #004d40)"/>
      <path fill="#fff" d="M17.916 13.149c.871 0 1.582.851 1.582 1.905 0 1.05-.711 1.903-1.582 1.903-.873 0-1.582-.853-1.582-1.903 0-1.055.708-1.905 1.582-1.905zM14.395 16.485c0 .887-.597 1.607-1.333 1.607s-1.333-.719-1.333-1.607c0-.887.597-1.607 1.333-1.607s1.333.719 1.333 1.607z" style="fill:var(--color1, #fff)"/>
      <path fill="#004d40" d="M20.517 8.939V6.075s3.632-.801 5.448 3.424c0 0-2.829 2.061-5.448-.56zM11.621 8.939V6.075s-3.633-.801-5.447 3.424c0 0 2.826 2.061 5.447-.56z" style="fill:var(--color17, #004d40)"/>
      <path fill="#fff" d="M22.701 20.793c-5.907-1.832-10.873-.849-13.3-.105l-2.448 5.891c-1.102 3.517 3.499 3.979 3.499 3.979h11.259c4.935-.834 3.21-4.255 3.21-4.255z" style="fill:var(--color1, #fff)"/>
      <path fill="#004d40" d="M14.189 22.982c0 .635-.854 1.152-1.905 1.152s-1.903-.517-1.903-1.152c0-.638.851-1.153 1.903-1.153s1.905.515 1.905 1.153zM20.964 22.982c0 .635-.854 1.152-1.903 1.152-1.055 0-1.905-.517-1.905-1.152 0-.638.851-1.153 1.905-1.153 1.05 0 1.903.515 1.903 1.153z" style="fill:var(--color17, #004d40)"/>
    </symbol>
    <symbol id="icon-OWASPTop10" viewBox="0 0 32 32">
      <path d="M21.196 27.337c-.512 0-2.376-3.319-2.627-4.264-.524-1.981-.411-2.819-.38-3.085.096-.817.889-1.227.937-2.331.013-.341.187-2.047.324-3.379a2.3 2.3 0 0 1-.982-.461l.004.003c.901 1.211-.427 2.66-2.356 4.591-2.048 2.048-6.593 3.948-6.593 3.948s1.9-4.547 3.948-6.593c1.507-1.505 2.72-2.644 3.755-2.644.293 0 .569.089.836.288a2.293 2.293 0 0 1-.455-.962l-.003-.015c-1.332.137-3.037.309-3.379.325-1.105.048-1.513.84-2.329.936-.093.011-.259.032-.517.032-.48 0-1.284-.072-2.568-.413-1.029-.271-4.864-2.453-4.187-2.727.347-.14 1.449-.235 2.9-.235 1.396 0 3.116.088 4.795.307 2.093.273 4.013.617 5.323.875.021-.071.047-.139.077-.205l-1.339-.64s-1.067-1.227-.953-1.312a.023.023 0 0 1 .014-.004h.002c.168 0 1.023.977 1.105 1.088l.807.269-.379-.332s-.517-1.917-.383-1.963h.005c.141 0 .612 1.667.652 1.787.093.08.404.203.795.427l-.411-1.053s.187-1.74.324-1.74h.004c.14.028-.027 1.452-.063 1.628l.68 1.044a1.72 1.72 0 0 1 .608-.109h.009c.245 0 .499.048.744.143-.315-.669-.291-1.367.127-1.784.128-.127.286-.223.463-.277l.008-.002a.617.617 0 0 1 .607-.511h.003c.169 0 .339.067.469.197a.661.661 0 0 1 .196.445v.001c.201-.415.439-.973.423-1.156-.04-.409-.515-1.136-.52-1.143a.1.1 0 0 1 .083-.158h.002c.033 0 .067.016.085.047.021.031.508.776.552 1.236.024.264-.28.928-.444 1.267.493.276.889.672 1.156 1.15l.008.015c.327-.16.953-.445 1.236-.445l.032.001c.46.044 1.205.532 1.236.552.028.018.046.05.046.085a.102.102 0 0 1-.102.102.098.098 0 0 1-.056-.017c-.007-.005-.733-.48-1.143-.52h-.02c-.2 0-.736.228-1.136.423.16.005.323.071.447.196a.641.641 0 0 1 .016.908.61.61 0 0 1-.326.17l-.004.001a1.13 1.13 0 0 1-.28.472c-.221.211-.52.341-.851.341l-.045-.001h.002c-.283 0-.588-.073-.889-.213.176.457.189.944.033 1.36l1.044.68c.127-.025.888-.117 1.324-.117.173 0 .296.015.304.053.027.141-1.74.329-1.74.329l-1.053-.411c.224.391.347.703.427.795.121.04 1.832.523 1.787.657-.005.016-.035.023-.084.023-.377 0-1.88-.405-1.88-.405l-.331-.379.269.807c.116.087 1.168 1.007 1.084 1.121-.005.007-.012.009-.021.009-.185 0-1.289-.963-1.289-.963l-.641-1.339a1.356 1.356 0 0 1-.194.074l-.011.003c.257 1.309.601 3.229.875 5.323.447 3.425.347 7.015.072 7.693-.021.055-.056.08-.101.08zM16 32C7.164 32 0 24.836 0 16S7.164 0 16 0s16 7.164 16 16-7.164 16-16 16zm0-29.537C8.524 2.463 2.463 8.524 2.463 16S8.524 29.537 16 29.537 29.537 23.476 29.537 16 23.476 2.463 16 2.463z"/>
    </symbol>
    <symbol id="icon-Swagger" viewBox="0 0 32 32">
      <path fill="#fff" d="M15.882 32C7.356 31.941-.058 24.865 0 15.875.055 7.225 7.244-.058 16.138.001c8.645.057 15.938 7.233 15.861 16.024.072 8.711-7.258 16.037-16.117 15.975zm0 0C7.356 31.941-.058 24.865 0 15.875.055 7.225 7.244-.058 16.138.001c8.645.057 15.938 7.233 15.861 16.024.072 8.711-7.258 16.037-16.117 15.975z" style="fill:var(--color1, #fff)"/>
      <path fill="#49a32b" d="M15.898 29.875c-7.394-.051-13.823-6.187-13.773-13.983C2.173 8.39 8.407 2.075 16.12 2.126c7.496.05 13.821 6.273 13.754 13.896.062 7.554-6.294 13.907-13.976 13.854zm0 0c-7.394-.051-13.823-6.187-13.773-13.983C2.173 8.39 8.407 2.075 16.12 2.126c7.496.05 13.821 6.273 13.754 13.896.062 7.554-6.294 13.907-13.976 13.854z" style="fill:var(--color18, #49a32b)"/>
      <path fill="#fff" d="M21.166 15.995c-.036.661-.613 1.21-1.183 1.115h-.009a1.141 1.141 0 0 1-1.143-1.14 1.16 1.16 0 0 1 1.178-1.12c.631.003 1.19.536 1.156 1.146zm-10.141 6.408c.238.007.476.002.75.002v1.723c-1.704.288-3.108-.196-3.453-1.636a9.613 9.613 0 0 1-.217-1.611c-.037-.574.027-1.154-.017-1.727-.121-1.576-.325-2.115-1.838-2.189v-1.962a2.79 2.79 0 0 1 .329-.056c.829-.041 1.179-.295 1.365-1.112.084-.459.134-.924.149-1.39.066-.902.042-1.819.193-2.706.217-1.283 1.014-1.907 2.33-1.977.374-.02.75-.003 1.174-.003V9.52c-.175.012-.335.038-.494.033-1.072-.033-1.128.332-1.206 1.22-.049.557.019 1.123-.019 1.682-.04.556-.114 1.109-.223 1.656-.155.792-.642 1.382-1.317 1.882 1.31.853 1.46 2.178 1.545 3.523.046.723.025 1.451.098 2.171.057.558.274.701.851.718zm1.105-7.554h.02c.627.01 1.126.527 1.116 1.153l-.002.061a1.11 1.11 0 0 1-1.173 1.045l-.074-.001a1.13 1.13 0 0 1 .112-2.258zm3.904 0c.685-.005 1.14.439 1.144 1.116.004.696-.428 1.141-1.109 1.144-.692.003-1.148-.435-1.152-1.108a1.085 1.085 0 0 1 1.116-1.152zm8.175-.859c.182.681.537.92 1.254.953.117.005.234.025.395.043v1.962c-.087.029-.177.05-.267.064-.96.06-1.398.454-1.495 1.417-.062.615-.057 1.236-.099 1.853a15.744 15.744 0 0 1-.184 2.022c-.245 1.213-1.002 1.818-2.254 1.892-.403.024-.808.004-1.243.004v-1.753c.234-.014.44-.034.647-.039.748-.018 1.012-.259 1.049-1.001.041-.816.058-1.632.095-2.448.053-1.179.376-2.233 1.474-2.968-.629-.448-1.133-.991-1.264-1.723-.158-.887-.209-1.794-.294-2.693-.042-.45-.04-.903-.084-1.353-.047-.485-.381-.653-.822-.664-.253-.006-.507-.001-.83-.001V7.845c2.064-.343 3.489.344 3.622 2.318.055.829.047 1.662.1 2.491.023.451.091.899.202 1.336z" style="fill:var(--color1, #fff)"/>
    </symbol>
    <symbol id="icon-Mongo" viewBox="0 0 32 32">
      <path fill="#13aa52" d="M32 16c0 8.837-7.163 16-16 16S0 24.837 0 16 7.163 0 16 0s16 7.163 16 16z" style="fill:var(--color19, #13aa52)"/>
      <path fill="#fff" d="M20.277 14.045c-1.011-4.46-3.399-5.927-3.656-6.487-.281-.395-.566-1.098-.566-1.098l-.021-.053c-.029.395-.044.548-.418.947-.579.452-3.548 2.944-3.79 8.012-.225 4.726 3.414 7.543 3.906 7.902l.056.04v-.003c.003.024.156 1.125.264 2.292h.386c.106-.953.248-1.788.436-2.607l-.029.152.031-.02a6.18 6.18 0 0 0 .632-.518l-.004.004.023-.02a9.07 9.07 0 0 0 2.909-6.767 10.879 10.879 0 0 0-.167-1.839l.01.066zm-4.266 6.553s0-6.629.219-6.628c.171 0 .392 8.55.392 8.55-.304-.037-.61-1.407-.61-1.923z" style="fill:var(--color1, #fff)"/>
    </symbol>
  </defs>
</svg>